# xmcd
#
# Track frame offsets:
#	150
#	15687
#	29687
#	43788
#	59199
#	78196
#	98892
#	119245
#	134892
#	153342
#	174912
#
# Disc length: 2615 seconds
#
# Revision: 1
# Processed by: cddbd v1.5.2PL0 Copyright (c) Steve Scherf et al.
# Submitted via: audiograbber 1.83.01
#
DISCID=9e0a350b
DTITLE=London Grammar - If You Wait
DYEAR=2013
DGENRE=Electronic Pop
TTITLE0=Hey Now
TTITLE1=Stay Awake
TTITLE2=Shyer
TTITLE3=Wasting My Young Years
TTITLE4=Sights
TTITLE5=Strong
TTITLE6=Nightcall
TTITLE7=Metal and Dust
TTITLE8=Interlude [Live]
TTITLE9=Flickers
TTITLE10=If You Wait
EXTD=YEAR: 2013
EXTT0=
EXTT1=
EXTT2=
EXTT3=
EXTT4=
EXTT5=
EXTT6=
EXTT7=
EXTT8=
EXTT9=
EXTT10=
PLAYORDER=
